<svg xmlns="http://www.w3.org/2000/svg" xmlns:svg="http://www.w3.org/2000/svg" id="svg7384" width="16" height="16" version="1.1"><metadata id="metadata90"/><title id="title9167">Gnome Symbolic Icon Theme</title><g id="layer9" display="inline" transform="translate(-401.00018,-177)"><path font-stretch="normal" style="text-indent:0;text-align:start;line-height:normal;text-transform:none;block-progression:tb;marker:none;-inkscape-font-specification:Sans" id="path16225" fill="#bebebe" fill-opacity="1" stroke="none" stroke-width="2" d="m 406.0002,184 c -0.30943,4e-5 -0.61463,0.0905 -0.8125,0.28125 L 401.59395,188 l 3.65625,3.71875 c 0.19771,0.19101 0.44055,0.28124 0.75,0.28125 l 1,0 0,-1 c -5e-5,-0.25688 -0.12958,-0.52871 -0.3125,-0.71875 L 405.40645,189 l 5.59375,0 0,-2 -5.625,0 1.21875,-1.28125 c 0.18273,-0.19024 0.40624,-0.46185 0.40625,-0.71875 l 0,-1 z" baseline-shift="baseline" color="#000" direction="ltr" display="inline" enable-background="accumulate" font-family="Sans" font-size="medium" font-style="normal" font-variant="normal" font-weight="normal" letter-spacing="normal" opacity=".5" overflow="visible" text-anchor="start" text-decoration="none" visibility="visible" word-spacing="normal" writing-mode="lr-tb"/><path d="m 412.00018,188 1.375,0 1.125,1.09375 1.09375,-1.09375 1.40625,0 0,1.46875 -1.09375,1.0625 1.09375,1.0625 0,1.40625 -1.4375,0 -1.0625,-1.0625 -1.0625,1.0625 -1.4375,0 0,-1.40625 1.0625,-1.0625 -1.0625,-1.0625 0,-1.46875 z" style="marker:none" id="path3761-2-3-5-4-8-9-8-0-1-7-8-8" fill="#bebebe" fill-opacity="1" stroke="none" stroke-width="2" color="#bebebe" display="inline" overflow="visible" visibility="visible"/><path font-stretch="normal" style="text-indent:0;text-align:start;line-height:normal;text-transform:none;block-progression:tb;marker:none;-inkscape-font-specification:Sans" id="path16205-6" fill="#bebebe" fill-opacity="1" stroke="none" stroke-width="2" d="m 412.0002,186 c 0.30943,-4e-5 0.61463,-0.0905 0.8125,-0.28125 L 416.40645,182 412.7502,178.28125 c -0.19771,-0.19101 -0.44055,-0.28124 -0.75,-0.28125 l -1,0 0,1 c 5e-5,0.25688 0.12958,0.52871 0.3125,0.71875 l 1.28125,1.28125 -4.59374,0 c -0.52831,-0.007 -1,0.47164 -1,1 0,0.52836 0.47169,1.00747 1,1 l 4.62499,0 -1.21875,1.28125 c -0.18273,0.19024 -0.40624,0.46185 -0.40625,0.71875 l 0,1 z" baseline-shift="baseline" color="#000" direction="ltr" display="inline" enable-background="accumulate" font-family="Sans" font-size="medium" font-style="normal" font-variant="normal" font-weight="normal" letter-spacing="normal" opacity=".5" overflow="visible" text-anchor="start" text-decoration="none" visibility="visible" word-spacing="normal" writing-mode="lr-tb"/></g></svg>