<svg xmlns="http://www.w3.org/2000/svg" xmlns:svg="http://www.w3.org/2000/svg" id="Layer_1" x="0" y="0" enable-background="new 0 0 360 360" version="1.1" viewBox="0 0 360 360" xml:space="preserve"><metadata id="metadata66"/><g id="XMLID_1079_"><polygon id="XMLID_1080_" fill="#9DD7F5" points="222.353 137.646 180 180 222.353 222.354 360 180"/><g id="XMLID_1081_"><polygon id="XMLID_84_" fill="#78B9EB" points="180 180 222.353 137.648 360 180"/></g><polygon id="XMLID_1082_" fill="#9DD7F5" points="137.647 137.648 0 180 137.647 222.352 180 180"/><g id="XMLID_1083_"><polygon id="XMLID_81_" fill="#78B9EB" points="180 180 137.647 222.354 0 180"/></g><polygon id="XMLID_1084_" fill="#9DD7F5" points="180 0 137.647 137.648 180 180 222.353 137.648"/><g id="XMLID_1085_"><polygon id="XMLID_1086_" fill="#78B9EB" points="180 180 137.647 137.648 180 0"/></g><polygon id="XMLID_1087_" fill="#9DD7F5" points="180 180 137.647 222.354 180 360 222.353 222.354"/><g id="XMLID_1088_"><polygon id="XMLID_75_" fill="#78B9EB" points="180 180 222.353 222.354 180 360"/></g><g id="XMLID_1089_"><polygon id="XMLID_1090_" fill="#006DF0" points="70 70 128.236 180 180 180 180 128.236"/></g><g id="XMLID_1091_"><polygon id="XMLID_1092_" fill="#006DF0" points="180 180 128.236 180 70 290 180 231.765"/></g><g id="XMLID_1093_"><polygon id="XMLID_1094_" fill="#006df0" fill-opacity="1" points="231.765 180 180 180 180 231.765 290 290"/></g><g id="XMLID_1095_"><polygon id="XMLID_1096_" fill="#006df0" fill-opacity="1" points="180 128.236 180 180 231.765 180 290 70"/></g><circle id="XMLID_1097_" cx="180" cy="180" r="90" fill="#006df0" fill-opacity="1"/><g id="XMLID_1098_" fill="#006df0" fill-opacity="1"><path id="XMLID_1099_" fill="#006df0" fill-opacity="1" d="M180,270c49.706,0,90-40.295,90-90s-40.294-90-90-90"/></g><g id="XMLID_1100_"><circle id="XMLID_1101_" cx="180" cy="180" r="60" fill="#FFF"/></g><circle id="XMLID_1102_" cx="180" cy="180" r="40" fill="#003778" fill-opacity="1"/><g id="XMLID_1103_"><path id="XMLID_1104_" fill="#003778" d="M180,220c22.091,0,40-17.908,40-40c0-22.091-17.909-40-40-40"/></g></g></svg>